<?xml version="1.0"?>
<svg xmlns="http://www.w3.org/2000/svg" height="512px" viewBox="0 0 128 128" width="512px" class=""><g><g><path d="m113.778 85.673a.278.278 0 0 0 -.007-.048l-8.659-28.039a1.749 1.749 0 0 0 -1.672-1.233h-15.549a1.75 1.75 0 0 0 0 3.5h14.258l7.579 24.539h-22.018a1.75 1.75 0 0 0 -1.75 1.75 9.808 9.808 0 0 1 -9.8 9.8h-24.324a9.808 9.808 0 0 1 -9.8-9.8 1.75 1.75 0 0 0 -1.75-1.75h-22.014l7.579-24.539h14.258a1.75 1.75 0 0 0 0-3.5h-15.549a1.749 1.749 0 0 0 -1.672 1.233l-8.659 28.039v.03a1.7 1.7 0 0 0 -.078.487v23.09a1.75 1.75 0 0 0 1.75 1.75h96.2a1.75 1.75 0 0 0 1.75-1.75v-23.09a1.728 1.728 0 0 0 -.073-.469zm-3.428 21.809h-92.7v-19.59h21.005a13.316 13.316 0 0 0 13.181 11.546h24.328a13.316 13.316 0 0 0 13.181-11.546h21z" data-original="#000000" class="active-path" data-old_color="#000000" fill="#FFFFFF"/><path d="m62.618 77.068a1.749 1.749 0 0 0 2.764 0l16.391-21.113a1.75 1.75 0 1 0 -2.765-2.146l-13.258 17.078v-52.119a1.75 1.75 0 0 0 -3.5 0v52.119l-13.258-17.078a1.75 1.75 0 1 0 -2.765 2.146z" data-original="#000000" class="active-path" data-old_color="#000000" fill="#FFFFFF"/></g></g> </svg>
