<?xml version="1.0"?>
<svg xmlns="http://www.w3.org/2000/svg" xmlns:xlink="http://www.w3.org/1999/xlink" version="1.1" id="Capa_1" x="0px" y="0px" width="512px" height="512px" viewBox="0 0 522.572 522.571" style="enable-background:new 0 0 522.572 522.571;" xml:space="preserve"><g><g>
	<path d="M507.225,191.371l-143.912-30.398L277.694,23.401c-8.929-14.346-23.917-14.676-33.47-0.741l-90.619,132.192L15.52,190.122   c-16.371,4.18-20.441,17.718-9.082,30.227l113.073,124.554L96.059,489.445c-2.705,16.683,7.65,24.706,23.127,17.919l114.303-50.104   c15.478-6.787,40.564-6.756,56.029,0.056l114.358,50.404c15.465,6.817,25.948-1.206,23.421-17.913L403.521,332.59l112.101-113.159   C527.525,207.423,523.761,194.859,507.225,191.371z" data-original="#000000" class="active-path" data-old_color="#000000" fill="#FFFFFF"/>
</g></g> </svg>
