<?xml version="1.0"?>
<svg xmlns="http://www.w3.org/2000/svg" height="512px" viewBox="-27 0 511 511.99977" width="512px" class=""><g><path d="m246.988281.046875c-4.136719-.34375-7.753906 2.75-8.085937 6.886719-.332032 4.132812 2.75 7.753906 6.886718 8.085937 69.976563 5.609375 132.675782 45.199219 167.71875 105.894531 58.753907 101.765626 23.761719 232.359376-78.003906 291.117188l-143.640625 82.929688 7.6875-37.511719c1.996094-9.742188-4.304687-19.324219-14.046875-21.355469-59.382812-12.386719-110.816406-49.589844-141.117187-102.066406-78.109375-135.289063 11.859375-306.679688 167.546875-319.03125 4.136718-.328125 7.21875-3.945313 6.894531-8.082032-.328125-4.132812-3.9375-7.203124-8.082031-6.8906245-166.835938 13.2382815-263.378906 196.0039065-179.367188 341.5117185 32.433594 56.179688 87.492188 96.003906 151.058594 109.261719 1.660156.347656 2.738281 1.980469 2.398438 3.636719l-8.59375 41.929687c-2.25 10.980469 9.523437 19.460938 19.226562 13.859375l147.546875-85.183594c52.769531-30.46875 90.519531-79.664062 106.292969-138.523437 37.109375-138.511719-61.074219-275.140625-202.320313-286.46875zm0 0" data-original="#000000" class="active-path" data-old_color="#000000" fill="#FFFFFF"/><path d="m129.21875 137.574219c-5.199219-8.070313-17.585938-5.539063-19.332031 3.878906-5.234375 28.300781-1.316407 47.902344 2.84375 59.300781l-6.101563.445313c-7.519531.542969-12.113281 8.59375-8.75 15.300781 8.570313 17.125 20.0625 28.773438 29.023438 35.964844-6.488282 3.34375-7.800782 12.351562-2.125 17.363281 16.992187 15.015625 33.257812 21.917969 45.019531 25.078125-15.558594 8.371094-35.988281 11.277344-47.996094 12.28125-11.386719.949219-13.347656 16.867188-2.554687 20.601562 29.257812 10.101563 67.242187 16.667969 96.511718 9.515626 25.363282-5.148438 56.152344-20.441407 76.683594-38.097657 3.144532-2.707031 3.503906-7.449219.796875-10.59375-2.703125-3.144531-7.445312-3.503906-10.589843-.796875-18.714844 16.09375-47.644532 30.320313-70.085938 34.808594-20.855469 4.191406-44.027344 3.09375-69.097656-3.242188 15.574218-3.011718 32.179687-8.519531 44.414062-18.5 7.183594-5.851562 3.8125-17.523437-5.394531-18.710937-8.160156-1.054687-23.578125-4.824219-40.96875-18.027344 7.59375-3.359375 8.582031-13.921875 1.496094-18.527343-6.816407-4.425782-18.949219-13.890626-28.476563-29.9375l5.4375-.398438c7.441406-.542969 12-8.390625 8.769532-15.136719-2.757813-5.742187-8.25-20.761719-5.640626-45.328125 15.253907 19.417969 47.75 49.269532 105.191407 53.34375 7.128906.492188 12.527343-6.011718 11.136719-12.832031-1.542969-7.597656-1.050782-15.230469 1.464843-22.683594 10.785157-31.964843 51.027344-40.476562 73.890625-16.636719 3.53125 3.683594 8.890625 4.980469 13.660156 3.300782l9.171876-3.226563c-2.703126 3.109375-6.691407 6.53125-4.578126 12.148438.648438 1.722656 1.8125 3.15625 3.292969 4.136719l-3.308593 2.15625c-3.8125 2.484374-6.054688 6.847656-5.847657 11.382812.445313 9.78125.148438 44.25-22.308593 77.160156-2.339844 3.425782-1.457032 8.097656 1.96875 10.4375 3.425781 2.335938 8.101562 1.453125 10.4375-1.972656 24.214843-35.488281 25.355468-72.699219 24.957031-85.082031l15.628906-10.1875c6.660156-4.34375 4.355469-14.640625-3.53125-15.726563l-.605469-.085937 11.164063-12.839844c5.757812-6.625-1.035157-16.683594-9.34375-13.757813l-30.8125 10.84375c-39.4375-39.441406-106.664063-7.007812-100.886719 47.996094-57.097656-6.019531-85.082031-40.304687-94.625-55.117187zm0 0" data-original="#000000" class="active-path" data-old_color="#000000" fill="#FFFFFF"/></g> </svg>
